<?xml version="1.0" encoding="utf-8"?>
<!-- Generator: Adobe Illustrator 19.0.0, SVG Export Plug-In . SVG Version: 6.00 Build 0)  -->
<svg version="1.1" id="Layer_1" xmlns="http://www.w3.org/2000/svg" xmlns:xlink="http://www.w3.org/1999/xlink" x="0px" y="0px"
	 viewBox="0 0 666 93" style="enable-background:new 0 0 666 93;" xml:space="preserve">
<style type="text/css">
	.st0{fill:#4B2C66;}
</style>
<path class="st0" d="M83.3,43.9c1.8-7.3,3.6-14.1,13-14.3c9.9-0.3,12.8,6.3,13.5,15c1.9-1.4,1.7-2.7,1.9-3.8
	c1.5-7.9,5.1-11.3,12.1-11.3c7.6,0,11.9,3.6,13.1,11.5c1.5,9.9,1,19.9,0.8,29.9c-0.1,5.8-4.3,9.3-9.8,9.1c-5.5-0.2-8.9-3.8-9-9.8
	c-0.1-4.8,0.2-9.7-0.1-14.5c-0.2-3.5,1.3-8.8-4.5-8.7c-5.4,0-4.1,5.1-4.3,8.5c-0.2,4.8,0,9.7-0.1,14.5c-0.1,6.2-3.3,9.8-8.8,10
	c-5.7,0.2-9.6-3.3-9.9-9.5c-0.3-6-0.1-12-0.2-18c0-2.8-0.3-5.6-4.1-5.7c-3.8-0.1-4.1,2.8-4.1,5.6c-0.1,5.7,0,11.3-0.1,17
	c-0.1,7-3.4,10.7-9.2,10.6c-5.8-0.1-9.3-3.8-9.4-10.6c-0.1-9.7-0.1-19.3,0-29c0.1-3.9,0.8-7.7,4.7-9.9c5.7-3.2,11.9-0.3,13.3,6.2
	C82.8,39.2,82.9,41.6,83.3,43.9z"/>
<path class="st0" d="M267.9,43.9c1.8-7.5,3.8-14,13-14.3c9.9-0.3,13,6.1,13.5,14.8c2.1-1,1.7-2.3,1.8-3.3
	c1.3-7.7,4.8-11.2,11.5-11.5c7.9-0.4,12.3,2.6,13.7,10.7c1.8,10.9,1.5,21.9,0.6,32.9c-0.4,4.3-4.4,6.9-9,6.9c-4.6,0-8.5-2.8-8.9-7
	c-0.5-5.1-0.3-10.3-0.4-15.5c-0.1-2.2-0.2-4.3-0.3-6.5c-0.2-2.4-1.2-4.2-4-4.2c-3,0-4.2,1.8-4.3,4.4c-0.2,6.2-0.1,12.3-0.2,18.5
	c-0.2,5.8-2.6,9.1-7.1,10.1c-6.1,1.3-11.3-2.6-11.6-9.1c-0.2-5.8,0-11.7-0.1-17.5c0-3.1-0.1-6.4-4.4-6.4c-4.2,0.1-3.7,3.6-3.8,6.3
	c-0.2,5.5,0,11-0.2,16.5c-0.2,7-3.5,10.5-9.4,10.3c-5.8-0.2-9-4-9.1-10.8c-0.1-9.5-0.1-19,0-28.5c0.1-4.7,1-9.1,6.3-10.7
	c6.4-1.9,10.8,1,11.8,7.6C267.5,39.7,267.7,41.8,267.9,43.9z"/>
<path class="st0" d="M621.8,66.2c-1.3,3.1-2,5.5-3.2,7.6c-4.3,7.8-14.2,8.7-19.9,1.7c-1.5-1.8-2.8-3.8-3.6-5.9
	c-3.4-9.2-6.8-18.4-9.7-27.7c-2.1-6.8,1.6-12.2,8.1-12.5c5.2-0.3,7.8,3,9.3,7.4c2.6,7.5,4.9,15.2,7.7,22.6c1,2.8,1.5,7.5,6.4,5.6
	c4.4-1.7,2.6-5.6,1.8-8.7c-1.4-5.1-3.5-10.1-4.7-15.2c-1.6-6.8,1.5-11.1,7.9-11.8c5.2-0.5,8,2.6,9.5,7c2.5,7.2,4.7,14.6,7.2,21.7
	c1.2,3.4,1.8,8.1,7.3,6.8c3.4-0.8,3.8-5.1,1.1-10.4c-1.5-2.9-3.7-5.5-5.4-8.4c-3.4-5.7-1.8-12.4,3.5-15.1c5.6-2.9,12.6-1.1,15.1,4.3
	c1.7,3.6,1.5,7.6,0.3,11.2c-2.6,8-5.5,16-9.4,23.6c-3.1,5.9-7.1,10.4-14.7,9.9C629,79.7,625.3,75,623,68.6
	C622.8,68,622.5,67.5,621.8,66.2z"/>
<path class="st0" d="M501.2,44.1c1.3-0.7,1.1-1.8,1.3-2.7c1.8-8.4,5.8-11.9,13.5-11.8c7.8,0.1,11.7,3.7,13.1,12.2
	c1.7,9.9,0.9,19.9,0.7,29.9c-0.1,5.3-4,8.4-9.2,8.4c-5.2,0-9-3.1-9.3-8.4c-0.4-5.8-0.1-11.7-0.2-17.5c0-3.5-0.4-7-4.9-7.3
	c-4.7-0.3-5.4,3.3-5.5,6.7c-0.3,5.5-0.1,11-0.2,16.5c-0.2,6.5-3.6,10-9.3,9.9c-5.7-0.1-9-3.7-9.1-10.2c-0.1-18-0.1-36,0-54
	c0-6.8,2.7-9.9,8.3-10.3c6.3-0.5,9.5,2,9.8,8.4c0.4,8.5,0.2,17,0.3,25.5C500.4,41,499.8,42.8,501.2,44.1z"/>
<path class="st0" d="M59,47.6c-1.1-7.8-4.5-14.1-12.3-16.7c-9.5-3.2-19-2.7-27.9,2.3c-3.7,2.1-5.6,5.4-4.5,9.6c1.2,4.5,4.2,7.3,9,7
	c2.8-0.1,5.5-0.9,8.3-1.4c2.5-0.4,5-0.7,7.3,0.5c1.8,0.8,2.6,2.5,2,4.1c-0.6,1.8-2.2,0.5-3.3,0.3c-5.7-1.2-11.5-2.1-17.3-0.5
	c-5,1.4-8.8,3.9-9.6,9.5c-1,7.7,1.1,13,6.4,15.9c9.4,5.2,19.1,1.4,22.2-8.7c0.1-0.2,0.5-0.3,0.8-0.5c1.1,0.3,0.8,1.3,0.9,2
	c1.3,6.8,4,9.3,9.7,9c5.4-0.3,8.6-3.7,8.8-10C59.9,62.6,60,55.1,59,47.6z M32.7,62.1c-1.4-0.2-2.8-0.5-4.3-0.8
	c-1.1-0.2-1.6-1-1.7-2.2c-0.1-1.3,0.4-2.3,1.7-2.6c1.5-0.3,2.9-0.7,4.4-0.6c2.5,0.1,6.3-0.7,6.5,2.7C39.5,62.8,35.3,61.5,32.7,62.1z
	"/>
<path class="st0" d="M375.8,51.2c-0.6-9.1-3.4-17.3-13.1-20.4c-8.8-2.9-17.7-2.6-26.2,1.7c-5.5,2.8-7.2,6.3-5.6,11.2
	c1.5,4.8,6,7.1,11.6,6c2.9-0.5,5.9-1.3,8.8-1.5c3.5-0.2,6.2,1.1,6.2,5.9c-7.2-1.4-13.8-3.1-20.7-1.3c-6.5,1.7-9.8,5.5-10.1,11.9
	c-0.3,7.7,2.8,12.6,9.3,14.7c10,3.2,16.5,0,20-10c0-0.1,0.6-0.1,0.9-0.1c1,0.5,0.7,1.4,0.8,2.2c0.8,6.3,3.7,8.9,9.3,8.7
	c5.3-0.2,8.7-3.6,8.9-9.4C376.1,64.2,376.2,57.7,375.8,51.2z M349.2,62c-0.8,0.1-1.7,0-2.5-0.1c-1.8-0.3-3.8-0.5-3.7-3.1
	c0.1-2.2,2-2.3,3.6-2.6c0.8-0.2,1.7-0.1,2.8-0.2c2.2,0.6,6.4-0.8,6.3,3.2C355.6,62.5,351.7,61.8,349.2,62z"/>
<path class="st0" d="M220.4,81c-6,0.4-11.6-0.4-16.8-2.9c-5.8-2.8-8.2-7.5-6.6-12.9c1.4-4.8,6.4-7.2,12.7-6c4.5,0.9,8.9,3,13.6,2.8
	c1.7-0.1,4.5,0.5,4.7-1.6c0.3-2.3-2.5-2.1-4.2-2.4c-5.7-1-11.4-2.1-16.9-4.2c-6.5-2.5-9-5.9-9-11.7c0.1-5.2,3.5-10.1,9.2-11.8
	c9.6-2.9,19.3-3,28.9,0.5c3,1.1,5.7,2.9,6.8,6.2c2.1,6.2-2.1,11.6-8.7,11c-4.9-0.5-9.8-1.6-14.7-2.4c-1.1-0.2-2.3-0.2-3.4,0
	c-1.1,0.2-2.7,0.3-2.7,1.7c0,1.4,1.5,1.4,2.6,1.7c6.9,1.7,14.2,2.1,20.8,4.8c8.7,3.5,10.8,15.3,4,21.8c-3.9,3.8-9,4.9-14.1,5.4
	C224.5,81.2,222.3,81,220.4,81z"/>
<path class="st0" d="M167.6,29c-14.8,0-25.1,10.2-25.1,25c-0.1,16.1,9.4,26.1,24.8,26.3c15.7,0.2,24.9-9,24.9-25.2
	C192.2,38.6,183.2,29.1,167.6,29z M177.6,57c-3.4,1.2-6.8,1.2-10.3,1.2c-3.3,0-6.6,0-9.9-1.1c-2.2-0.7-3.4-2-3.4-4.3
	c0-2.1,1.2-3.5,3.1-3.9c6.7-1.6,13.5-1.5,20.2,0c2.1,0.5,3,2,3.1,4C180.5,54.9,179.6,56.3,177.6,57z"/>
<path class="st0" d="M391.1,54.6c0-1.5-0.1-3,0-4.5c0.2-3.4,0.5-6.2-4.7-5.6c-3.6,0.4-6.5-4.2-6.1-8.3c0.4-3.9,2-7.9,6.5-7.4
	c5,0.5,4.3-2,4.3-5.1c0-7,4-10.5,10.7-9.6c5.2,0.7,7.5,3.5,7.2,9.9c-0.1,3.6,0,5.3,4.6,4.3c6.4-1.3,11.2,2.6,11.2,8.2
	c0,5.4-4.3,9.2-10.7,8.2c-4.8-0.8-5.7,0.6-5.2,4.8c0.3,2.6,0,5.3,0.1,8c0.1,3.5,1.4,5.3,4.9,3.1c4.1-2.6,7.9-2.7,11.1,1.1
	c3.1,3.6,2.7,9-0.8,12.8c-5.7,6.3-13.2,6.9-20.7,5c-6.8-1.7-10.6-6.9-11.9-14C391,61.9,391.1,58.3,391.1,54.6z"/>
<path class="st0" d="M580.8,63.8c-1.5-4.3-5.1-6.1-9.5-5.7c-3.6,0.3-7.2,1.1-10.9,1.5c-3,0.3-6,0.4-8.5-1.9
	c-0.8-0.8-1.7-1.9-1.2-3.1c0.5-1.1,1.8-0.6,2.7-0.6c3-0.1,6,0,9,0v-0.1c3.2,0,6.3,0.2,9.5,0c8.6-0.6,11.7-5.9,8.2-13.8
	c-1.3-3-3.4-5.3-6.2-7c-9.1-5.4-18.5-5.7-27.6-0.7c-9.6,5.3-12.1,14.4-11.7,24.7c0.3,9.3,4.2,16.7,12.8,20.3c10,4.3,20.4,4.9,30-1.6
	C582,72.9,582.5,68.4,580.8,63.8z M554.8,45.9c3.9-1.5,7.8-1.6,11,1.7c0.7,0.7,1.4,1.5,0.9,2.6c-0.5,0.9-1.4,0.6-2.2,0.6
	c-2,0.1-4,0-6,0c-1,0-2,0.1-3,0c-1.5-0.3-3.9,1.1-4.3-0.9C550.7,47.7,553,46.6,554.8,45.9z"/>
<path class="st0" d="M441.6,55.3c0-1.7-0.1-3.3,0-5c0.1-3.3,0.7-6.4-4.8-5.7c-3.7,0.4-6.2-3.8-6.1-8.3c0.1-4.5,2.8-8,6.8-7.5
	c4.3,0.5,4-1.4,4-4.4c-0.1-7.7,4-11.3,11.1-10.1c4.6,0.8,7.2,3.6,6.9,8.8c-0.3,4.6,0.1,6.2,5.5,5.4c7.5-1.2,12.2,5.8,9.1,12.1
	c-2.2,4.4-6.1,5.1-10.2,4.3c-3.9-0.7-5.1,0.3-4.7,4.2c0.3,3-0.1,6,0.1,9c0.2,3.1,1.4,4.6,4.8,2.9c5.5-2.8,8.9-2.4,11.4,1.2
	c2.6,3.7,2.2,9.3-1.3,12.8c-5.9,6-13.3,6.7-20.8,4.5c-7.2-2.1-11-7.6-11.7-15.2c-0.3-3-0.3-6-0.5-9
	C441.5,55.3,441.6,55.3,441.6,55.3z"/>
</svg>
